<svg width="53" height="53" viewBox="0 0 53 53" fill="none" xmlns="http://www.w3.org/2000/svg">
<rect x="1" y="1" width="51" height="51" rx="2" fill="white" fill-opacity="0.1"/>
<rect x="0.5" y="0.5" width="52" height="52" rx="2.5" stroke="white" stroke-opacity="0.3"/>
<path d="M37.3312 16.7001C37.2935 16.9615 37.2687 17.2255 37.2159 17.4838C37.0343 18.3722 37.2824 19.1131 37.9661 19.7043C38.4878 20.1554 38.8586 20.7014 39.0242 21.3728C39.3454 22.6749 38.9811 23.7762 37.9919 24.6609C37.3665 25.2202 37.0805 25.8905 37.1755 26.7224C37.2163 27.0792 37.303 27.4359 37.2991 27.7919C37.2871 28.8742 36.8077 29.7281 35.935 30.358C35.7821 30.4684 35.7496 30.5532 35.819 30.7347C37.0528 33.9625 38.2799 37.1928 39.5014 40.4253C39.5581 40.5754 39.5933 40.7594 39.5618 40.9117C39.496 41.2304 39.1806 41.3655 38.8451 41.2459C37.8131 40.878 36.7826 40.5058 35.7517 40.135C35.4819 40.0379 35.2092 39.9479 34.9441 39.8394C34.7774 39.7712 34.6888 39.7988 34.5988 39.9667C33.9591 41.1593 33.3085 42.3462 32.6602 43.5342C32.6181 43.6114 32.5744 43.6907 32.5165 43.7557C32.2305 44.0768 31.7752 43.9654 31.6074 43.5319C31.403 43.004 31.2048 42.4737 31.0036 41.9446C30.0476 39.4293 29.0905 36.9144 28.1374 34.398C28.0763 34.2367 27.9883 34.1301 27.8228 34.0622C27.572 33.9591 27.3414 33.8057 27.0886 33.7092C26.4808 33.4771 25.8765 33.5144 25.2898 33.7947C25.0711 33.8993 24.849 34.0016 24.6459 34.1323C24.5585 34.1885 24.495 34.3061 24.4555 34.4091C23.7666 36.2079 23.0832 38.0088 22.3983 39.8091C21.9329 41.0322 21.4647 42.2544 21.003 43.4789C20.9139 43.7151 20.7885 43.9024 20.5189 43.931C20.2244 43.9623 20.0618 43.7818 19.9344 43.547C19.2924 42.3639 18.6437 41.1844 18.0093 39.9972C17.9077 39.807 17.8155 39.7774 17.617 39.8503C16.3332 40.3219 15.045 40.7814 13.7573 41.2421C13.3812 41.3766 13.0309 41.1857 13.0014 40.8193C12.9914 40.6945 13.036 40.5582 13.082 40.4371C14.3123 37.1924 15.5457 33.9488 16.7803 30.7057C16.8248 30.5887 16.8578 30.5019 16.7226 30.4053C15.5087 29.5378 15.0779 28.3615 15.3735 26.9106C15.5543 26.0226 15.3065 25.282 14.6227 24.6906C14.1011 24.2396 13.7318 23.6926 13.5655 23.0213C13.2448 21.7274 13.6059 20.6302 14.5847 19.7495C15.214 19.1832 15.5101 18.5128 15.4147 17.6712C15.3709 17.2853 15.2864 16.8986 15.2928 16.5134C15.3183 14.969 16.6373 13.5711 18.1802 13.4473C19.2095 13.3648 19.9197 12.8779 20.3449 11.927C20.9258 10.6279 22.2849 9.86643 23.7047 10.0194C24.1679 10.0693 24.6115 10.211 25.0152 10.4531C25.8637 10.9619 26.7048 10.9556 27.5632 10.4622C29.2966 9.46597 31.4257 10.1386 32.2576 11.9537C32.6752 12.8647 33.3578 13.3507 34.3514 13.4417C36.0452 13.5967 37.3018 14.9885 37.3312 16.7001V16.7001ZM36.2676 16.6771C36.2425 15.5577 35.4012 14.6212 34.2918 14.5034C33.7607 14.447 33.2474 14.337 32.7759 14.0701C32.1117 13.694 31.6394 13.1519 31.3264 12.4581C30.8463 11.3936 29.81 10.8608 28.7066 11.1433C28.3572 11.2327 28.0397 11.4431 27.7035 11.5885C26.5973 12.0667 25.5333 11.9742 24.4882 11.3807C23.2891 10.6999 21.8701 11.1452 21.3018 12.3877C20.7061 13.69 19.7037 14.3721 18.2905 14.5064C16.9999 14.6291 16.112 15.8914 16.3936 17.1634C16.6865 18.4861 16.337 19.6057 15.3184 20.5095C14.2413 21.4651 14.24 22.934 15.3166 23.8859C16.3302 24.7822 16.6816 25.8946 16.3993 27.2096C16.1175 28.5228 16.9832 29.7596 18.3108 29.8916C19.7257 30.0323 20.7294 30.7211 21.3119 32.0265C21.406 32.2374 21.5444 32.4395 21.7013 32.6098C22.4164 33.3862 23.5253 33.5518 24.4685 33.0292C24.8969 32.7918 25.3365 32.5977 25.827 32.5333C26.6475 32.4255 27.3959 32.6154 28.1128 33.0214C29.306 33.697 30.7243 33.2448 31.2945 31.9989C31.8872 30.7041 32.8857 30.0288 34.2889 29.8912C35.5995 29.7627 36.4759 28.5161 36.194 27.2224C35.9077 25.9082 36.2546 24.7974 37.2617 23.8925C37.4508 23.7226 37.6284 23.5252 37.7608 23.3095C38.3233 22.3933 38.1143 21.2202 37.2227 20.4526C36.277 19.6383 35.9426 18.5807 36.1599 17.3503C36.1994 17.1266 36.2319 16.9015 36.2676 16.6771L36.2676 16.6771ZM23.3159 34.4146C23.2517 34.4015 23.2177 34.3909 23.1831 34.3879C21.8352 34.2715 20.879 33.6053 20.2887 32.3818C20.1358 32.065 19.911 31.7658 19.661 31.517C19.239 31.0969 18.6759 30.9975 18.1011 30.9352C17.8871 30.912 17.8126 30.9674 17.741 31.1565C16.7138 33.8719 15.6785 36.5843 14.6459 39.2977C14.5823 39.465 14.5255 39.6349 14.4488 39.8508C14.5639 39.8168 14.6257 39.8018 14.6852 39.7805C15.7163 39.4111 16.7475 39.0418 17.7779 38.6707C18.2487 38.5011 18.4331 38.5688 18.6759 39.0129C18.9652 39.542 19.2519 40.0725 19.5407 40.6019C19.8075 41.0912 20.0755 41.5799 20.3779 42.1327C21.3702 39.5262 22.3403 36.9775 23.3159 34.4146H23.3159ZM38.1442 39.8627C38.0965 39.7218 38.0734 39.646 38.0454 39.5722C37.2628 37.5107 36.4799 35.4493 35.6966 33.3881C35.4068 32.6254 35.1187 31.8621 34.8218 31.1022C34.7933 31.0294 34.7031 30.9235 34.6487 30.9276C34.3708 30.9486 34.0892 30.977 33.8201 31.0463C33.0689 31.2398 32.5732 31.7299 32.2654 32.432C31.9357 33.184 31.3969 33.7505 30.6433 34.0705C30.2236 34.2487 29.7642 34.3336 29.2955 34.4683C30.2493 36.9743 31.2195 39.5231 32.2097 42.1245C32.2896 41.9878 32.3386 41.9087 32.3831 41.8271C32.9 40.8777 33.4155 39.9276 33.9331 38.9786C34.1474 38.5857 34.3539 38.5041 34.7667 38.6517C35.5834 38.9437 36.3988 39.2393 37.215 39.5327C37.5033 39.6363 37.7924 39.7378 38.1442 39.8627V39.8627Z" fill="white"/>
<path d="M18.2621 22.0915C18.2615 17.7424 21.8622 14.2105 26.2972 14.21C30.7105 14.2095 34.3114 17.7501 34.3115 22.0902C34.3117 26.4564 30.7167 29.9927 26.2743 29.9963C21.856 29.9998 18.2628 26.4548 18.2621 22.0915L18.2621 22.0915ZM26.331 15.2652C22.3815 15.2912 19.295 18.3317 19.3407 22.2073C19.3847 25.9524 22.4868 28.9595 26.3428 28.9398C30.1593 28.9204 33.2705 25.8188 33.2388 22.0752C33.2067 18.2765 30.1136 15.2984 26.331 15.2652V15.2652Z" fill="white"/>
<path d="M30.8914 20.9274C30.7993 21.0696 30.7273 21.2322 30.6119 21.3505C30.0812 21.8946 29.5411 22.4292 28.9978 22.9602C28.8911 23.0645 28.8597 23.1644 28.8854 23.3113C29.0202 24.0821 29.1434 24.855 29.277 25.6259C29.3188 25.8672 29.2702 26.0687 29.0724 26.2137C28.881 26.3539 28.6813 26.3338 28.4802 26.225C27.8101 25.8624 27.1368 25.506 26.4698 25.1377C26.3267 25.0588 26.2144 25.0553 26.0694 25.1353C25.415 25.4963 24.7528 25.8424 24.0966 26.2C23.8768 26.3198 23.6627 26.3703 23.4474 26.2071C23.2422 26.0517 23.2129 25.84 23.2564 25.5933C23.3896 24.8373 23.5074 24.0784 23.6417 23.3226C23.6697 23.1654 23.6355 23.061 23.5242 22.9522C22.9865 22.4259 22.4586 21.8891 21.9207 21.363C21.7323 21.1787 21.6273 20.9751 21.7128 20.7109C21.7976 20.4491 22.0142 20.3756 22.2552 20.3406C22.9987 20.2324 23.7425 20.1259 24.4838 20.0037C24.5771 19.9883 24.6931 19.9028 24.7362 19.817C25.0764 19.1407 25.4058 18.4586 25.7289 17.7735C25.8421 17.5335 25.9976 17.3651 26.2688 17.3672C26.5404 17.3693 26.6917 17.5432 26.8042 17.7818C27.124 18.4604 27.4567 19.1326 27.7792 19.8098C27.8384 19.9341 27.9111 19.9931 28.0536 20.0126C28.8122 20.1161 29.5692 20.2323 30.3259 20.3502C30.667 20.4033 30.8472 20.6004 30.8914 20.9274L30.8914 20.9274ZM23.3377 21.2655C23.4082 21.3447 23.4352 21.3784 23.4655 21.4086C23.8174 21.7595 24.1678 22.1118 24.5228 22.4593C24.7108 22.6433 24.7928 22.8528 24.7255 23.1187C24.6948 23.2398 24.684 23.3661 24.6637 23.4899C24.5948 23.9094 24.5257 24.3288 24.4508 24.7839C24.5425 24.7431 24.6017 24.7211 24.6571 24.6915C25.0474 24.483 25.4457 24.2881 25.824 24.0588C26.1341 23.8708 26.4102 23.8794 26.717 24.0626C27.0969 24.2894 27.4937 24.4868 27.8841 24.695C27.9363 24.7228 27.9943 24.7392 28.0757 24.7712C27.9813 24.1946 27.9024 23.655 27.8013 23.1199C27.7505 22.8513 27.817 22.645 28.0061 22.4609C28.3567 22.1194 28.7018 21.7719 29.048 21.4257C29.0861 21.3876 29.1169 21.3417 29.1726 21.2728C29.0445 21.2465 28.9482 21.2221 28.8504 21.2073C28.4076 21.1401 27.965 21.0708 27.521 21.0121C27.2837 20.9807 27.1233 20.8606 27.0208 20.642C26.8554 20.289 26.6844 19.9388 26.5138 19.5885C26.4414 19.4398 26.3641 19.2937 26.2694 19.1079C26.2112 19.2077 26.172 19.2658 26.1416 19.3284C25.9649 19.6921 25.7671 20.0474 25.621 20.4237C25.463 20.8309 25.2004 21.0438 24.7753 21.053C24.7249 21.0541 24.6744 21.0611 24.6244 21.0687C24.2125 21.1312 23.8007 21.1946 23.3377 21.2655V21.2655Z" fill="white"/>
</svg>
