<svg width="53" height="53" viewBox="0 0 53 53" fill="none" xmlns="http://www.w3.org/2000/svg">
<rect x="0.999023" y="1" width="51" height="51" rx="2" fill="white" fill-opacity="0.1"/>
<rect x="0.499023" y="0.5" width="52" height="52" rx="2.5" stroke="white" stroke-opacity="0.3"/>
<path d="M42.7607 21.4494C42.2388 20.7683 41.7164 20.0874 41.1941 19.4066C40.7041 18.768 40.2142 18.1294 39.7246 17.4906C39.5192 17.2225 39.3135 16.9546 39.1079 16.6867C38.4233 15.7948 37.7154 14.8725 37.0269 13.9599C36.897 13.7877 36.7294 13.6927 36.555 13.6924H36.5542C36.3854 13.6924 36.2266 13.7792 36.1068 13.9368C35.6415 14.5495 35.1651 15.1701 34.7045 15.7703C34.5068 16.0279 34.3092 16.2854 34.1117 16.5431L32.7635 18.3031C31.9631 19.348 31.1627 20.3929 30.3621 21.4376C30.2547 21.5778 30.1453 21.769 30.2532 22.006C30.3896 22.3062 30.6843 22.3037 30.7811 22.3031C31.1826 22.2999 31.5912 22.3001 31.9862 22.3003C32.3026 22.3005 32.6189 22.3007 32.9353 22.2992C32.99 22.2992 33.0025 22.3092 33.0025 22.3093C33.0026 22.3094 33.0115 22.3218 33.011 22.3672C32.9974 23.5159 32.9868 24.5478 32.9785 25.522L32.9781 25.5819C32.975 25.9355 32.9719 26.3011 32.984 26.6615C32.9895 26.8215 33.0262 26.9838 33.0874 27.1186C33.1822 27.3269 33.4383 27.3989 33.6308 27.3478C33.8528 27.2893 34.0058 27.0853 34.0114 26.8404C34.0238 26.3052 34.0322 25.823 34.037 25.3661C34.0376 25.3047 34.0299 25.2465 34.0224 25.1901C34.016 25.1414 34.0099 25.0953 34.0099 25.0517C34.0094 24.5012 34.01 23.9507 34.0106 23.4002C34.0111 22.8974 34.0117 22.3946 34.0114 21.8919C34.0113 21.7035 33.9599 21.5568 33.8586 21.4558C33.7571 21.3547 33.6096 21.3035 33.4201 21.3035H33.4171C32.8458 21.3052 32.2775 21.3051 31.7279 21.3033L36.5581 15.0034L41.3887 21.3027C41.3781 21.3034 41.368 21.3038 41.3579 21.3039C41.0089 21.305 40.6598 21.3051 40.3107 21.3052C40.1045 21.3053 39.8983 21.3053 39.692 21.3056C39.3162 21.3061 39.1079 21.512 39.1053 21.8854L39.0997 22.662C39.0911 23.8605 39.0823 25.0998 39.077 26.3189C39.0763 26.4751 39.0833 26.6325 39.0901 26.7847C39.0965 26.9269 39.103 27.074 39.103 27.2174C39.1043 30.5341 39.104 33.8508 39.1038 37.1675L39.1036 40.1157C39.1036 40.1291 39.1034 40.1426 39.1033 40.1561C39.1028 40.2024 39.1022 40.2502 39.1075 40.3001C39.1274 40.4869 39.2256 40.6403 39.3769 40.7211C39.4475 40.7588 39.5245 40.7776 39.6028 40.7776C39.6857 40.7776 39.7701 40.7565 39.8501 40.7145C40.1078 40.5792 40.1084 40.3117 40.1087 40.168C40.112 38.8088 40.1154 37.4496 40.1188 36.0904C40.1259 33.2617 40.133 30.4331 40.1386 27.6044C40.139 27.389 40.1315 27.1711 40.1243 26.9603C40.1183 26.7861 40.1121 26.6059 40.1105 26.4294C40.1096 26.3316 40.1159 26.2344 40.1226 26.1316C40.1293 26.0289 40.1362 25.9227 40.1352 25.8163C40.134 25.6867 40.1265 25.5563 40.1192 25.4303C40.1116 25.2991 40.1038 25.1635 40.1035 25.0316C40.1015 24.284 40.1046 23.5236 40.1075 22.7882L40.1091 22.3896C40.1092 22.3448 40.1115 22.3214 40.1136 22.3092C40.1278 22.3068 40.1565 22.3045 40.2073 22.3047L40.4009 22.305C41.025 22.3058 41.6704 22.3067 42.3053 22.302C42.4055 22.3013 42.5517 22.2926 42.6656 22.2255C42.7911 22.1516 42.8707 22.0442 42.8959 21.9148C42.9248 21.7662 42.8768 21.6009 42.7607 21.4494V21.4494Z" fill="white"/>
<path d="M13.2928 19.2285L14.5333 17.6116C15.0588 16.9266 15.7126 16.0741 16.3379 15.2548C16.3397 15.2525 16.3415 15.2502 16.3431 15.2482C16.5478 15.518 16.7573 15.7909 16.96 16.0548L17.8044 17.1559C18.7736 18.4203 19.7428 19.6847 20.7118 20.9492C20.8363 21.1116 20.9602 21.2745 21.093 21.4491L21.171 21.5516L21.1673 21.5517C20.9244 21.5523 20.6815 21.5522 20.4383 21.5521C20.1259 21.5519 19.8133 21.5518 19.5008 21.5532C19.0772 21.555 18.8965 21.738 18.8964 22.165C18.8962 23.683 18.8962 25.2009 18.8963 26.7188L18.8963 26.7431C18.8962 26.7987 18.8961 26.8563 18.9009 26.9149C18.92 27.1466 19.1677 27.3775 19.401 27.381C19.5375 27.3838 19.6644 27.3331 19.7581 27.2403C19.8583 27.1411 19.9131 27.0009 19.9124 26.8454C19.911 26.5614 19.9061 26.273 19.9013 25.9941C19.8962 25.6947 19.8909 25.385 19.89 25.0809C19.8883 24.5118 19.8911 23.933 19.8938 23.3732C19.895 23.1335 19.8962 22.8938 19.897 22.6541C19.8972 22.6216 19.8973 22.5804 19.8993 22.554C19.9257 22.552 19.9665 22.552 19.9987 22.552C20.2001 22.5518 20.4015 22.5518 20.603 22.5519C21.1115 22.552 21.637 22.5521 22.1542 22.5487C22.2233 22.5483 22.3549 22.5374 22.4588 22.4697C22.5811 22.39 22.6574 22.2798 22.6795 22.1511C22.7054 22.0002 22.6555 21.8374 22.5353 21.6802C22.0126 20.9968 21.4893 20.314 20.9656 19.6314L19.3443 17.5181C18.4883 16.4026 17.6324 15.287 16.7767 14.1712C16.6593 14.018 16.5057 13.9336 16.3443 13.9336H16.3443C16.1825 13.9336 16.0283 14.0185 15.91 14.1725L15.239 15.0465C14.9416 15.4337 14.6443 15.821 14.3471 16.2083C13.966 16.705 13.585 17.2018 13.2041 17.6986L11.9202 19.3725C11.3273 20.1457 10.7343 20.919 10.1401 21.6912C9.98967 21.8869 9.96019 22.0848 10.0526 22.2796C10.1841 22.5566 10.47 22.5542 10.5645 22.5541C11.0994 22.5506 11.6435 22.551 12.1698 22.5514L12.6754 22.5517C12.7131 22.5517 12.7574 22.5517 12.7852 22.5538C12.787 22.5802 12.7868 22.6214 12.7865 22.6565C12.7849 22.9497 12.7827 23.2429 12.7805 23.5361C12.7761 24.1368 12.7715 24.758 12.7717 25.3692C12.7718 25.641 12.778 25.9168 12.7841 26.1835C12.7893 26.4147 12.7947 26.6538 12.7961 26.8885C12.7978 27.1796 12.7951 27.4761 12.7925 27.7628C12.7905 27.987 12.7884 28.2112 12.7883 28.4355C12.7876 30.82 12.7877 33.2045 12.7878 35.589L12.7879 37.4906C12.7879 38.4946 12.7879 39.4985 12.7896 40.5025C12.7899 40.6519 12.8423 40.7859 12.9372 40.88C13.0282 40.9701 13.1545 41.0195 13.2931 41.0195L13.2979 41.0195C13.5878 41.0171 13.7844 40.8103 13.7872 40.505C13.7886 40.343 13.7883 40.1809 13.788 40.0189C13.7878 39.9221 13.7877 39.8253 13.7879 39.7285L13.7931 37.2486C13.7997 34.0927 13.8063 30.9368 13.8117 27.7809C13.8119 27.6937 13.8056 27.6072 13.7994 27.5236C13.7933 27.4395 13.7874 27.3601 13.7877 27.2806C13.7881 27.1615 13.7934 27.0392 13.7985 26.921C13.8031 26.8142 13.8079 26.7038 13.8092 26.5942C13.8099 26.5311 13.8038 26.47 13.798 26.411C13.7924 26.3556 13.7872 26.3032 13.7879 26.2526C13.7896 26.122 13.7942 25.9885 13.7986 25.8594C13.8037 25.7115 13.809 25.5585 13.81 25.4072C13.8106 25.3048 13.8051 25.2024 13.7997 25.1033C13.7948 25.0151 13.7898 24.9239 13.7896 24.8357C13.7881 24.2411 13.7883 23.6466 13.7886 23.052C13.7887 22.7512 13.7888 22.4505 13.7887 22.1497C13.7885 21.7444 13.6005 21.5551 13.1971 21.5537C12.9189 21.5527 12.6407 21.5525 12.3625 21.5523C12.0804 21.5521 11.7984 21.5519 11.5163 21.5509C11.5149 21.5509 11.5135 21.5509 11.5121 21.5509C11.5185 21.5419 11.5248 21.5333 11.5312 21.5249C12.1183 20.7593 12.7055 19.9939 13.2928 19.2285L13.2928 19.2285Z" fill="white"/>
<path d="M26.0739 25.6624C24.0145 25.7641 22.2614 26.5753 20.8631 28.0737C19.5222 29.5105 18.821 31.2295 18.7791 33.183C18.7344 35.265 19.5105 37.228 20.9645 38.7104C22.4217 40.1959 24.3621 41.0133 26.4305 41.0133C26.4381 41.0133 26.4457 41.0133 26.4533 41.0132C28.4905 41.0131 30.4084 40.2246 31.8538 38.7925C33.2933 37.3662 34.1001 35.469 34.1254 33.4504C34.1525 31.2895 33.3866 29.41 31.8489 27.8639C30.2846 26.2912 28.3419 25.5504 26.0739 25.6624H26.0739ZM31.1381 28.5722C32.4253 29.843 33.1312 31.5408 33.1259 33.3527C33.1149 37.0263 30.1173 40.0123 26.4416 40.0123H26.4351C22.7767 40.0088 19.7876 37.0278 19.7716 33.367C19.8016 29.6089 22.6527 26.7305 26.4037 26.6714C28.1869 26.6436 29.8681 27.3184 31.1381 28.5722V28.5722Z" fill="white"/>
<path d="M20.6666 16.3973C21.1906 16.3992 21.7233 16.3987 22.2383 16.3983L22.6938 16.3979C22.7732 16.398 22.8548 16.3978 22.8861 16.4053C22.8934 16.436 22.8934 16.515 22.8934 16.5915L22.893 23.6442L22.8928 23.6792C22.8924 23.733 22.8919 23.7888 22.9001 23.8467C22.9246 24.0202 23.021 24.1646 23.1646 24.2428C23.2365 24.282 23.3157 24.3016 23.3961 24.3016C23.4694 24.3016 23.5437 24.2853 23.6144 24.2526C23.8955 24.1225 23.8953 23.8365 23.8952 23.7144C23.8939 22.0553 23.8934 20.3963 23.8929 18.7373L23.8919 15.9722C23.8917 15.5747 23.7139 15.3973 23.3152 15.3971C23.0589 15.3969 22.8024 15.397 22.5461 15.3971C22.247 15.3971 21.948 15.3972 21.649 15.397C21.6424 15.397 21.6359 15.3969 21.6292 15.3968C21.8601 15.1037 22.0917 14.8112 22.3233 14.5187C22.5141 14.2776 22.705 14.0366 22.8955 13.7953C23.5021 13.0265 24.1085 12.2576 24.715 11.4887C25.2835 10.7678 25.8521 10.0469 26.4209 9.32616C26.4325 9.3114 26.4419 9.30007 26.4493 9.29139C26.4566 9.29971 26.4655 9.31046 26.4766 9.32434C26.7972 9.72758 27.1699 10.1967 27.5363 10.6613C28.5607 11.9604 29.9098 13.6718 31.2651 15.3946C30.7339 15.3977 30.1939 15.3975 29.6716 15.3972L29.6036 15.3972H29.6029C29.391 15.3972 29.2459 15.4428 29.146 15.5406C29.0453 15.6394 28.9984 15.7834 28.9984 15.9939C28.9977 18.5602 28.9973 21.1265 28.9971 23.6929L28.9971 23.7103C28.997 23.7601 28.9969 23.8116 29.0036 23.8651C29.0301 24.0748 29.1925 24.2488 29.3986 24.2882C29.633 24.3331 29.8644 24.2209 29.9484 24.0213C29.9903 23.9216 29.994 23.8086 29.9941 23.7105C29.9956 21.8402 29.9957 19.9698 29.9957 18.0995L29.9959 16.5285C29.9959 16.4837 29.9959 16.4303 29.9991 16.401C30.0283 16.3977 30.0816 16.3977 30.1297 16.3977L30.7341 16.398C31.2367 16.3984 31.7392 16.3987 32.2416 16.397C32.4811 16.3962 32.6478 16.3021 32.7373 16.1173C32.8318 15.922 32.8051 15.7286 32.6578 15.5424C31.8303 14.4962 31.0041 13.449 30.1779 12.4017L29.2731 11.255C29.0536 10.9767 28.8336 10.6989 28.6136 10.421C28.0484 9.70683 27.4638 8.96837 26.8965 8.23652C26.7803 8.08656 26.6176 8.00036 26.45 8H26.449C26.2796 8 26.1187 8.08661 25.9956 8.24398C25.1039 9.3846 24.1915 10.54 23.3091 11.6575C23.0397 11.9987 22.7702 12.34 22.5009 12.6814C22.2755 12.967 22.0501 13.2525 21.8246 13.538C21.3094 14.1903 20.7767 14.8649 20.2544 15.5298C20.1789 15.6259 20.1326 15.7188 20.1167 15.806C20.0891 15.9573 20.1233 16.1 20.2129 16.2077C20.3139 16.3293 20.475 16.3966 20.6666 16.3973V16.3973Z" fill="white"/>
<path d="M36.0198 30.2185C35.9656 30.0772 35.8496 29.9743 35.7016 29.9363C35.5472 29.8966 35.3824 29.9347 35.2602 30.0378C34.9954 30.2616 35.0963 30.5733 35.1343 30.6906C35.3335 31.3061 35.4579 31.9926 35.5148 32.7893C35.5612 33.4404 35.5196 34.1377 35.3875 34.9209C35.2662 35.6395 35.0489 36.3526 34.7415 37.0402C34.351 37.9137 33.83 38.712 33.1929 39.4131C32.3076 40.3873 31.2565 41.1439 30.069 41.6617C29.1176 42.0765 28.1186 42.322 27.0997 42.3915C26.4843 42.4335 25.8846 42.417 25.3169 42.3427C24.5972 42.2484 23.8957 42.0744 23.2319 41.8254C22.1934 41.4358 21.2392 40.8551 20.396 40.0993C19.2187 39.0442 18.3611 37.7474 17.8471 36.2447C17.5663 35.4238 17.4107 34.5884 17.3847 33.7618C17.357 32.8778 17.4111 32.1703 17.5551 31.535C17.6071 31.3053 17.6646 31.0758 17.7238 30.8414C17.7993 30.5425 17.65 30.2613 17.3767 30.1872C17.2509 30.1532 17.1202 30.1705 17.0084 30.2358C16.883 30.3091 16.7925 30.4342 16.7535 30.5882C16.7366 30.6546 16.7188 30.7208 16.701 30.7871C16.6645 30.9229 16.6268 31.0633 16.5975 31.2047C16.4507 31.9116 16.3783 32.5763 16.3769 33.2329L16.3305 33.2373L16.3422 33.3528C16.36 33.5296 16.3755 33.7103 16.3905 33.8849C16.4244 34.2792 16.4594 34.6869 16.524 35.0852C16.6524 35.878 16.9023 36.6876 17.2667 37.4917C17.7051 38.4588 18.294 39.3505 19.017 40.1421C19.9771 41.1933 21.1365 42.0196 22.4632 42.5982C23.4694 43.037 24.5409 43.3014 25.6478 43.3838C25.9201 43.4041 26.1901 43.4142 26.4577 43.4142C27.2385 43.4142 27.9969 43.328 28.7208 43.1562C29.4283 42.9884 30.0564 42.7761 30.6408 42.5071C31.6033 42.0641 32.4823 41.4814 33.2535 40.775C34.1752 39.9306 34.9233 38.939 35.477 37.8277C35.7929 37.1935 36.0415 36.5221 36.216 35.8322C36.3708 35.2199 36.4704 34.5891 36.5122 33.9572C36.5756 33.0005 36.49 32.0108 36.2579 31.0157C36.187 30.712 36.1092 30.4512 36.0198 30.2185V30.2185Z" fill="white"/>
<path d="M26.131 29.7267C26.1199 29.8299 26.119 29.9333 26.1182 30.0245C26.1176 30.0942 26.1136 30.1223 26.1099 30.1333C26.0902 30.1435 26.0261 30.1555 25.9978 30.1608C25.7864 30.2003 25.6219 30.2466 25.4799 30.3064C24.8793 30.5597 24.5554 31.0566 24.5433 31.7435C24.5327 32.3453 24.7756 32.8012 25.2456 33.062C25.4699 33.1865 25.7137 33.2753 25.9493 33.3612L26.0385 33.3938C26.117 33.4226 26.1171 33.4424 26.1171 33.4782C26.1171 33.946 26.1166 34.4139 26.1159 34.8817C25.9321 34.7918 25.8171 34.688 25.7547 34.5557C25.7094 34.4598 25.6692 34.3574 25.6303 34.2583C25.5956 34.17 25.5597 34.0786 25.5194 33.9895C25.4075 33.7415 25.1549 33.632 24.8442 33.6963C24.6203 33.7426 24.4252 33.968 24.409 34.1986C24.3924 34.4354 24.443 34.6659 24.5595 34.8838C24.8549 35.4367 25.3506 35.7758 26.0329 35.8917C26.122 35.9068 26.1218 35.9162 26.1199 35.9885C26.1126 36.2608 26.1138 36.5401 26.1233 36.8425C26.1253 36.9038 26.1397 37.0558 26.232 37.1436C26.2862 37.195 26.3846 37.2326 26.4747 37.2326C26.5113 37.2326 26.5466 37.2263 26.5769 37.2123C26.6755 37.1669 26.7866 37.0419 26.7942 36.919C26.8125 36.6221 26.8131 36.3279 26.8083 35.9775C26.8074 35.9071 26.8074 35.9058 26.8866 35.8936C27.7458 35.7616 28.3403 35.2129 28.477 34.4259C28.5941 33.7523 28.2889 33.0705 27.7348 32.7679C27.5153 32.6481 27.2749 32.5688 27.0425 32.4921C26.9874 32.4739 26.9323 32.4557 26.8777 32.4371C26.8117 32.4146 26.8071 32.4031 26.8079 32.342C26.8115 32.0916 26.8115 31.8374 26.8115 31.5915C26.8116 31.4486 26.8116 31.3058 26.8122 31.163V31.1616C26.8385 31.1746 26.8615 31.1869 26.882 31.2006C27.0272 31.2978 27.1231 31.4441 27.1837 31.661C27.2699 31.9692 27.5872 32.1631 27.8763 32.0844C28.0421 32.0392 28.1765 31.9373 28.2547 31.7974C28.329 31.6643 28.3452 31.5071 28.3004 31.3547C28.2477 31.1761 28.185 31.0298 28.1087 30.9075C27.8464 30.4875 27.4483 30.2353 26.9244 30.1579C26.8811 30.1515 26.8367 30.145 26.8133 30.1388C26.8105 30.1142 26.8103 30.0672 26.8102 30.0197C26.81 29.9331 26.8097 29.835 26.8002 29.7364C26.7829 29.558 26.6568 29.4396 26.479 29.4347C26.2852 29.43 26.1506 29.5441 26.131 29.7267H26.131ZM26.8105 34.1579L26.8105 34.0921C26.8104 33.9563 26.8104 33.8204 26.8106 33.6846C26.8106 33.6664 26.8108 33.6504 26.8111 33.6365C26.8229 33.6409 26.8362 33.6462 26.8512 33.6522C27.0297 33.724 27.1972 33.8022 27.2839 33.9693C27.3783 34.1511 27.3821 34.3509 27.2949 34.5319C27.2022 34.724 27.0193 34.8714 26.8117 34.9237C26.8105 34.7678 26.8107 34.612 26.8109 34.4562L26.8111 34.1579H26.8105V34.1579ZM26.1173 32.2122C25.8713 32.1518 25.6819 31.8982 25.6908 31.6351C25.6986 31.405 25.8944 31.1709 26.1167 31.1186C26.1174 31.2541 26.1173 31.3896 26.1172 31.525L26.1168 31.8246C26.1165 31.9538 26.1162 32.083 26.1173 32.2122H26.1173Z" fill="white"/>
</svg>
