<svg width="53" height="53" viewBox="0 0 53 53" fill="none" xmlns="http://www.w3.org/2000/svg">
<rect x="1" y="1" width="51" height="51" rx="2" fill="white" fill-opacity="0.1"/>
<rect x="0.5" y="0.5" width="52" height="52" rx="2.5" stroke="white" stroke-opacity="0.3"/>
<path d="M22.7861 20.7737L22.928 20.5501C23.3408 19.8755 23.468 19.1824 23.3166 18.431C23.1703 17.7044 22.7738 17.1043 22.1379 16.6471C21.2106 15.9805 19.7563 16.0022 18.8269 16.6967C17.8064 17.4593 17.2302 19.035 18.1034 20.5711L18.2192 20.7749L16.8866 20.7746C16.6357 20.7745 16.3814 20.7744 16.1258 20.7744C15.7151 20.7744 15.3009 20.7747 14.8909 20.7758C14.4404 20.7771 14.1037 20.9285 13.8616 21.2389C13.4886 21.7168 13.495 22.25 13.8807 22.8237L15.5073 25.2433C17.8975 28.7986 20.3691 32.4749 22.7955 36.0938C22.8903 36.2352 22.9496 36.4319 22.9501 36.6072C22.9561 38.4162 22.9561 40.2553 22.956 42.0339C22.956 42.6639 22.956 43.294 22.9562 43.9241C22.9564 44.2241 23.0442 44.4469 23.2035 44.5514C23.3593 44.6536 23.5912 44.6465 23.8566 44.5314C24.5903 44.2131 25.3234 43.8935 26.0566 43.574C27.2924 43.0353 28.5704 42.4782 29.8303 41.937C30.1906 41.7821 30.3297 41.5744 30.3262 41.1961C30.311 39.5309 30.3186 37.8795 30.327 36.6269C30.3283 36.4456 30.389 36.2463 30.4895 36.0939C30.9645 35.3731 31.4552 34.6458 31.9296 33.9424C32.0991 33.6911 32.2686 33.4399 32.4378 33.1884L35.2368 29.0269C36.623 26.966 38.0091 24.9051 39.3954 22.8444C39.56 22.5997 39.7248 22.3035 39.6993 21.9606C39.646 21.2449 39.1359 20.7801 38.3995 20.7766C37.1262 20.7704 35.9598 20.7713 34.8338 20.7792L34.8285 20.7793C34.7072 20.7793 34.4886 20.773 34.4886 20.773C34.4886 20.773 34.4453 20.5596 34.41 20.4594C34.3864 20.3922 34.3634 20.3245 34.3403 20.2566C34.2377 19.9544 34.1315 19.6421 33.9691 19.3804C33.2649 18.2462 32.2273 17.6415 30.8851 17.5833C30.1188 17.55 29.4017 17.7515 28.7519 18.1821C27.9106 18.7393 27.3727 19.5024 27.1532 20.45C27.1293 20.5529 27.1103 20.7781 27.1103 20.7781C27.1103 20.7781 26.863 20.7796 26.7326 20.7796C26.7303 20.7796 26.728 20.7796 26.7256 20.7796C25.9108 20.7729 25.082 20.7735 24.2804 20.774C23.9522 20.7743 23.624 20.7745 23.2956 20.7742L22.7861 20.7737L22.7861 20.7737ZM28.2786 20.6236C28.3046 19.9082 29.2413 18.7655 30.5941 18.6735C31.9838 18.5791 33.1173 19.5953 33.3019 20.604L33.3313 20.7649H28.2735L28.2786 20.6236V20.6236ZM19.2729 17.7553C19.6091 17.4188 20.0517 17.2336 20.5195 17.2336H20.5233C20.9941 17.2346 21.4361 17.4195 21.7681 17.7543C22.1018 18.0908 22.2839 18.5377 22.2808 19.0126C22.2779 19.4895 22.0899 19.9355 21.7515 20.2683C21.4207 20.5937 20.9849 20.7722 20.5224 20.7722C20.5163 20.7722 20.5102 20.7722 20.5041 20.7721C19.5415 20.7623 18.7557 19.97 18.7526 19.006C18.7511 18.5369 18.9359 18.0927 19.2729 17.7553V17.7553ZM29.4315 35.6977C29.2896 35.9085 29.224 36.1202 29.2251 36.3638C29.228 36.9932 29.2279 37.633 29.2279 38.2517C29.2278 39.0255 29.2277 39.8257 29.2334 40.6124C29.2354 40.898 29.1372 41.0515 28.8831 41.1601C27.8164 41.6159 26.7352 42.0878 25.6895 42.5442C25.2905 42.7184 24.8914 42.8926 24.4922 43.0663C24.4443 43.0871 24.397 43.1034 24.3372 43.1239C24.3063 43.1345 24.2715 43.1465 24.231 43.161L24.0486 43.2265V42.7569C24.0486 42.3239 24.0488 41.8908 24.049 41.4577C24.0496 40.0368 24.0503 38.5675 24.0437 37.1226C24.0432 37.0196 24.0541 36.8901 24.1429 36.8024C24.2308 36.7157 24.3551 36.706 24.4652 36.708C25.1832 36.7209 25.9113 36.7165 26.529 36.7106C26.7622 36.7084 26.9454 36.6413 27.0588 36.5167C27.1529 36.4132 27.1951 36.2703 27.1809 36.1032C27.1601 35.8598 26.977 35.6676 26.7354 35.6358C26.6319 35.6222 26.5259 35.6202 26.4358 35.62L26.151 35.6195C25.4776 35.6182 24.7813 35.6169 24.0968 35.6219C24.0948 35.6219 24.0928 35.6219 24.0908 35.6219C23.8908 35.6219 23.7532 35.5497 23.6449 35.3884C21.9552 32.8709 20.2348 30.3128 18.5711 27.839L17.0325 25.5511C17.0083 25.5151 16.9879 25.4783 16.9621 25.4318C16.9483 25.4069 16.9324 25.3781 16.9127 25.3438L16.7956 25.1396L19.1326 25.1396C22.8809 25.1396 26.7572 25.1397 30.5695 25.1376C30.7304 25.1375 30.8537 25.1237 30.9576 25.094C31.1699 25.0334 31.3228 24.8221 31.3212 24.5915C31.3196 24.3605 31.1647 24.1502 30.9528 24.0913C30.8176 24.0537 30.6659 24.0493 30.5636 24.0493C26.2827 24.0472 21.3037 24.0456 16.3855 24.0524C16.2935 24.0524 16.0403 24.0632 16.0403 24.0632C16.0403 24.0632 15.9029 23.8904 15.8121 23.7473C15.5969 23.4077 15.3666 23.0684 15.1438 22.7404C15.0433 22.5924 14.9428 22.4445 14.8433 22.296C14.8163 22.2556 14.7931 22.2147 14.7664 22.1674C14.7533 22.1443 14.7391 22.1192 14.7228 22.0912L14.6031 21.8861H38.6905L38.564 22.0935C38.5441 22.1261 38.5259 22.1568 38.5085 22.1861C38.4729 22.2458 38.4394 22.3022 38.4025 22.357L37.9632 23.0106C35.1679 27.1695 32.2774 31.47 29.4315 35.6977V35.6977Z" fill="white"/>
<path d="M26.1163 12.8705C26.1197 14.4765 27.3469 15.7035 28.9708 15.7246C29.7151 15.7337 30.4203 15.4476 30.9598 14.9175C31.5137 14.3732 31.8207 13.6474 31.8242 12.8737C31.8277 12.1083 31.5278 11.3853 30.9799 10.8378C30.4445 10.3029 29.7417 10.0088 28.9996 10.0088C28.9945 10.0088 28.9896 10.0088 28.9846 10.0088C27.3727 10.0174 26.1128 11.2744 26.1163 12.8705V12.8705ZM28.9674 11.0978C28.9746 11.0978 28.9816 11.0979 28.9888 11.098C29.46 11.1036 29.9005 11.2924 30.2291 11.6294C30.5593 11.968 30.7377 12.4162 30.7315 12.8911C30.7252 13.3667 30.5334 13.8109 30.1914 14.142C29.861 14.4617 29.4303 14.6365 28.9753 14.6365C28.9636 14.6365 28.9519 14.6364 28.9402 14.6362C27.9819 14.6172 27.1845 13.8013 27.1989 12.8543C27.2138 11.8814 28.0051 11.0978 28.9674 11.0978V11.0978Z" fill="white"/>
<path d="M14.0943 13.3365L14.0948 12.5475C14.095 12.3239 14.0952 12.1004 14.0946 11.8768C14.0942 11.7509 14.0944 11.6249 14.0947 11.4989C14.0953 11.1772 14.0959 10.8445 14.0861 10.5187C14.0791 10.2852 13.9526 10.1223 13.7101 10.0345C13.6462 10.0113 13.5837 10 13.5245 10C13.39 10 13.272 10.0583 13.1914 10.1693C13.084 10.3173 13.0133 10.5218 13.0112 10.6904C12.9966 11.8504 12.9995 13.0306 13.0023 14.1719L13.0038 14.8427C13.0039 14.9332 13.0165 15.0298 13.0402 15.1221C13.0878 15.3081 13.2235 15.4517 13.4032 15.5063C13.5821 15.5606 13.7737 15.5171 13.9156 15.3899C14.0409 15.2778 14.0963 15.1255 14.0955 14.8962C14.0935 14.3762 14.0939 13.8477 14.0943 13.3365H14.0943Z" fill="white"/>
<path d="M36.7987 14.219L36.7985 14.1579C36.7983 14.0123 36.798 13.8747 36.7778 13.7415C36.7476 13.5427 36.6328 13.4083 36.4364 13.3422C36.37 13.3198 36.3057 13.3086 36.2438 13.3086C36.1164 13.3086 35.999 13.3559 35.8931 13.4502C35.7628 13.5662 35.7071 13.7271 35.707 13.9881C35.7065 15.1629 35.7059 16.3777 35.7082 17.5724C35.7084 17.6562 35.7193 17.7459 35.7398 17.832C35.7854 18.0228 35.9183 18.1719 36.0953 18.2307C36.2715 18.2892 36.4577 18.2516 36.6063 18.1278C36.7404 18.0159 36.8 17.8599 36.7996 17.6217C36.7988 17.1494 36.799 16.6771 36.7993 16.2049L36.7997 15.3797C36.8001 14.9992 36.8006 14.6058 36.7987 14.219L36.7987 14.219Z" fill="white"/>
<path d="M23.3749 11.4359C23.3748 11.4168 23.3712 11.3933 23.3674 11.3684L23.3635 11.342C23.3368 11.1538 23.2184 10.9979 23.0468 10.925C22.9803 10.8967 22.9103 10.8828 22.8406 10.8828C22.7293 10.8828 22.6186 10.9182 22.5231 10.9873C22.356 11.1083 22.2876 11.2796 22.2868 11.5787C22.2843 12.5441 22.2847 13.3294 22.2881 14.0503C22.2886 14.154 22.3033 14.2665 22.3308 14.3758C22.3925 14.6219 22.6697 14.7916 22.9242 14.7387C23.2245 14.6763 23.368 14.4907 23.3758 14.1544C23.3829 13.8457 23.3812 13.5307 23.3796 13.226C23.3791 13.1359 23.3786 13.0457 23.3783 12.9556H23.3754L23.3755 12.5343C23.3755 12.1682 23.3756 11.802 23.3749 11.4359L23.3749 11.4359Z" fill="white"/>
<path d="M13.5457 17.0137C13.4027 17.016 13.2608 17.0809 13.1565 17.1916C13.0583 17.2958 13.0052 17.4297 13.0107 17.559C13.023 17.8442 13.2714 18.0856 13.5532 18.0863H13.5546C13.6963 18.0863 13.83 18.0305 13.9312 17.929C14.0339 17.8261 14.09 17.6897 14.0892 17.5448C14.0884 17.4003 14.0317 17.2656 13.9295 17.1655C13.827 17.0653 13.6918 17.0124 13.5457 17.0137V17.0137Z" fill="white"/>
<path d="M36.2502 12.1398C36.253 12.1399 36.2559 12.1399 36.2586 12.1399C36.3996 12.1399 36.5325 12.085 36.6338 11.9848C36.737 11.8826 36.7935 11.747 36.7928 11.6031C36.7914 11.3143 36.5537 11.0766 36.263 11.0733C36.261 11.0733 36.259 11.0732 36.257 11.0732C36.116 11.0732 35.9765 11.1317 35.8736 11.2341C35.7706 11.3366 35.7145 11.4693 35.7154 11.6077C35.7173 11.8916 35.9622 12.1353 36.2502 12.1398V12.1398Z" fill="white"/>
<path d="M33.8069 25.1347C33.9452 25.1367 34.0786 25.0817 34.1826 24.9789C34.2878 24.875 34.3478 24.7338 34.3472 24.5915V24.5915C34.3459 24.3043 34.1041 24.0576 33.8191 24.0528C33.8165 24.0528 33.814 24.0527 33.8114 24.0527C33.6793 24.0527 33.545 24.1108 33.4418 24.2129C33.3351 24.3185 33.2745 24.4581 33.2753 24.5959C33.2771 24.8782 33.5255 25.1299 33.8069 25.1347V25.1347Z" fill="white"/>
</svg>
