<svg width="16" height="16" viewBox="0 0 16 16" fill="none" xmlns="http://www.w3.org/2000/svg">
<path d="M12.1744 14.9992C12.1711 14.9992 12.1679 14.9992 12.1647 14.9992C11.3507 14.9944 10.5238 14.9854 9.72402 14.9767C9.47849 14.9741 9.23295 14.9714 8.98742 14.9689C8.55228 14.9643 8.11714 14.9595 7.682 14.9547C7.14347 14.9487 6.60495 14.9427 6.06643 14.9373C5.69443 14.9336 5.37482 14.8079 5.14225 14.574C4.90872 14.339 4.78522 14.0175 4.7851 13.6441C4.78487 12.9247 4.78487 12.2053 4.78485 11.486C4.78485 10.1894 4.78485 8.84864 4.78345 7.5301C4.78312 7.23002 4.86647 6.97241 5.03118 6.76444L5.09159 6.68799C5.27797 6.45176 5.47073 6.20747 5.70401 5.98898C5.98919 5.72193 6.28435 5.46082 6.56983 5.2083C6.83303 4.97547 7.1052 4.73471 7.3648 4.4933C7.59485 4.27933 7.80211 4.0351 8.02151 3.77653L8.02801 3.76888C8.09467 3.6903 8.11364 3.5544 8.12257 3.36056C8.12594 3.28735 8.12922 3.21407 8.1325 3.14078C8.14805 2.79361 8.16414 2.4346 8.19013 2.07907C8.20258 1.90829 8.23835 1.72973 8.30264 1.5172C8.4111 1.15863 8.64993 0.989637 9.03337 1.00049C9.69118 1.01921 10.1849 1.23361 10.5428 1.65595C10.8752 2.04823 10.972 2.50481 11.016 2.81411C11.1168 3.52394 10.9877 4.18646 10.864 4.68436C10.7413 5.17814 10.5736 5.67811 10.355 6.20066C10.494 6.20069 10.633 6.20074 10.772 6.20078C11.6264 6.20106 12.51 6.20134 13.3786 6.19969H13.3832C13.8158 6.19969 14.1636 6.31574 14.4464 6.55444C14.8863 6.92565 15.0735 7.45302 14.9737 8.03941C14.9078 8.4264 14.7163 8.74314 14.4209 8.9643C14.5816 9.27761 14.6239 9.62378 14.5431 9.98766C14.4613 10.3561 14.2737 10.6532 13.9915 10.8673C14.1937 11.255 14.179 11.6293 14.1126 11.9083C14.0265 12.2699 13.8355 12.5623 13.5512 12.7738C13.7491 13.1622 13.7736 13.6119 13.6046 14.0284C13.3613 14.6279 12.8139 14.9992 12.1744 14.9992V14.9992ZM9.12547 1.90386C9.1028 1.99453 9.08947 2.07284 9.08422 2.14452C9.05916 2.48745 9.04337 2.84003 9.02809 3.18098C9.02479 3.25463 9.02151 3.32828 9.01811 3.40193C9.0081 3.61864 8.98949 4.02193 8.71131 4.3498L8.70481 4.35746C8.47819 4.62452 8.24386 4.90066 7.97498 5.1507C7.70724 5.39973 7.43081 5.64425 7.16349 5.88072C6.88271 6.12908 6.59237 6.38591 6.31652 6.64425C6.13247 6.81661 5.9686 7.0243 5.79511 7.24418L5.73365 7.32196C5.72036 7.33876 5.67979 7.38998 5.67994 7.52912C5.68134 8.84816 5.68134 10.1891 5.68134 11.486C5.68137 12.2052 5.68137 12.9245 5.68159 13.6438C5.68169 13.9114 5.80681 14.0373 6.07539 14.04C6.61426 14.0454 7.15311 14.0514 7.69195 14.0573C8.12689 14.0622 8.56181 14.067 8.99672 14.0715C9.24241 14.0741 9.48807 14.0768 9.73375 14.0794C10.5324 14.0881 11.3582 14.0971 12.1699 14.1018C12.1713 14.1018 12.1727 14.1018 12.1741 14.1018C12.4454 14.1018 12.6694 13.9484 12.774 13.6907C12.8709 13.4521 12.8121 13.1926 12.6168 12.9967C12.5913 12.9712 12.5718 12.9474 12.556 12.9283C12.5507 12.9219 12.5448 12.9146 12.5376 12.9063C12.4401 12.7919 12.4064 12.6363 12.4476 12.4917C12.4889 12.3472 12.5997 12.2329 12.7429 12.1874C13.1088 12.071 13.2011 11.8659 13.2405 11.7003C13.2827 11.5232 13.2877 11.3063 13.0053 11.0404C12.8893 10.9311 12.8399 10.7685 12.8755 10.6132C12.9111 10.4578 13.0264 10.3331 13.1784 10.2854C13.4648 10.1955 13.6113 10.0483 13.668 9.79291C13.7238 9.54181 13.6524 9.33881 13.4366 9.13471C13.3265 9.03056 13.2764 8.87779 13.3034 8.7286C13.3305 8.5794 13.4309 8.45395 13.5705 8.39511C13.5808 8.39077 13.5897 8.38686 13.5977 8.38336C13.6209 8.37318 13.6472 8.36164 13.6794 8.35054C13.9232 8.26654 14.0499 8.1241 14.09 7.88871C14.1368 7.61348 14.0664 7.40749 13.8685 7.24048C13.7511 7.14134 13.6013 7.09705 13.3834 7.09705H13.3803C12.5106 7.09867 11.6266 7.09841 10.7717 7.09813C10.4554 7.09803 10.1391 7.09793 9.82283 7.09793H9.69463C9.48061 7.09793 9.29656 6.9465 9.25494 6.73656C9.24526 6.69773 9.21912 6.59035 9.26487 6.46078C9.27828 6.42323 9.29388 6.37942 9.31612 6.33191C9.62432 5.67305 9.84606 5.06332 9.99402 4.46778C10.1486 3.84559 10.1901 3.37453 10.1284 2.94041C10.0828 2.61953 9.99977 2.4024 9.8591 2.2364C9.6893 2.03602 9.46015 1.9313 9.12547 1.90386L9.12547 1.90386Z" fill="#1F276D" stroke="#1F276D" stroke-width="0.4"/>
<path d="M3.31392 14.9313C2.9579 14.9313 2.62224 14.931 2.30149 14.9305C1.53567 14.9293 1.00065 14.3934 1.00042 13.6272C0.999847 11.5927 0.999872 9.55817 1.00042 7.52369C1.0006 6.75785 1.53539 6.22172 2.30094 6.21994C3.00643 6.21833 3.70154 6.21835 4.36708 6.22001C5.12967 6.22192 5.66357 6.75494 5.66537 7.51624C5.6671 8.24168 5.66675 8.97895 5.66639 9.69195C5.66627 9.96196 5.66612 10.2319 5.66609 10.502C5.67177 10.5304 5.67475 10.5599 5.67475 10.5901L5.67477 11.474C5.67482 12.1895 5.67485 12.9051 5.67467 13.6206C5.67452 14.391 5.1367 14.9297 4.36675 14.9306C3.99527 14.9311 3.64576 14.9313 3.31392 14.9313H3.31392ZM3.33571 7.1161C2.99552 7.1161 2.65056 7.1165 2.30302 7.1173C2.02604 7.11794 1.89699 7.24715 1.89692 7.52393C1.89637 9.55827 1.89634 11.5926 1.89692 13.6269C1.89699 13.8998 2.02979 14.0327 2.30292 14.0332C2.92178 14.0342 3.5965 14.0342 4.36565 14.0333C4.64318 14.0329 4.77813 13.8979 4.77818 13.6205C4.77836 12.905 4.77833 12.1895 4.77828 11.474L4.77826 10.6783C4.77258 10.6498 4.7696 10.6203 4.7696 10.5901C4.7696 10.2906 4.76975 9.99103 4.7699 9.6915C4.77025 8.97915 4.7706 8.24253 4.76888 7.51839C4.76823 7.24921 4.63608 7.11804 4.36483 7.11737C4.02857 7.11653 3.68465 7.1161 3.33571 7.1161H3.33571Z" fill="#1F276D" stroke="#1F276D" stroke-width="0.4"/>
</svg>
