<svg width="15" height="15" viewBox="0 0 15 15" fill="none" xmlns="http://www.w3.org/2000/svg">
<path d="M9.70204 14.9485C8.92801 14.9653 8.19916 14.7607 7.48856 14.4826C6.05048 13.9198 4.80134 13.06 3.67815 12.0123C2.5278 10.9392 1.5621 9.72151 0.849007 8.31282C0.391135 7.40831 0.0761937 6.45973 0.00840173 5.44218C-0.0557568 4.47916 0.247312 3.64474 0.925338 2.9525C1.11989 2.75388 1.31731 2.55791 1.51752 2.36498C2.14082 1.76436 3.03126 1.7642 3.6508 2.36966C4.11682 2.82511 4.57852 3.28512 5.03563 3.74951C5.63961 4.36311 5.64011 5.26404 5.04112 5.88435C4.83353 6.09932 4.62129 6.30992 4.40671 6.51791C4.34523 6.57751 4.33577 6.61938 4.38543 6.69542C5.04994 7.71294 5.82702 8.63557 6.75193 9.42331C7.23412 9.83399 7.75919 10.1942 8.26306 10.5796C8.34323 10.641 8.39697 10.6403 8.47062 10.5621C8.667 10.3538 8.87237 10.1538 9.07651 9.95292C9.70501 9.33436 10.6085 9.33167 11.2378 9.95185C11.699 10.4063 12.1561 10.865 12.609 11.3277C13.2098 11.9414 13.2151 12.8355 12.6197 13.4518C12.3431 13.738 12.0683 14.0301 11.7629 14.2837C11.2208 14.7338 10.5825 14.9461 9.87638 14.9485C9.81827 14.9487 9.76016 14.9485 9.70204 14.9485ZM0.990579 5.24023C1.01288 5.41825 1.03252 5.65855 1.07442 5.89491C1.24956 6.88286 1.66381 7.77612 2.19043 8.61904C3.17429 10.1938 4.44055 11.5009 5.98256 12.5341C7.06221 13.2575 8.21353 13.8132 9.53324 13.936C10.1908 13.9972 10.7763 13.8243 11.2729 13.3865C11.4843 13.2002 11.6772 12.9926 11.8758 12.792C12.1253 12.5399 12.126 12.2676 11.8769 12.017C11.4409 11.5784 11.0034 11.1412 10.5652 10.7047C10.2914 10.432 10.0195 10.4349 9.74336 10.7107C9.43784 11.0157 9.13425 11.3227 8.82663 11.6256C8.63413 11.8152 8.41177 11.8414 8.1789 11.7061C8.039 11.6249 7.9011 11.5399 7.76529 11.452C5.94441 10.273 4.46604 8.76077 3.34072 6.90475C3.13244 6.56123 3.15363 6.37785 3.44116 6.09089C3.73793 5.79469 4.0361 5.49986 4.32954 5.2004C4.54654 4.97895 4.54485 4.68912 4.32753 4.46794C3.87366 4.00601 3.41888 3.54497 2.9613 3.08672C2.73105 2.85612 2.44433 2.85543 2.20928 3.07864C2.02869 3.25012 1.85259 3.42637 1.67108 3.59685C1.21455 4.02563 1.01886 4.56435 0.990579 5.24023V5.24023Z" fill="white"/>
<path d="M14.9779 7.29527C14.9779 7.36998 14.979 7.44471 14.9777 7.5194C14.9726 7.80402 14.7606 8.02216 14.4858 8.02623C14.2088 8.03034 13.9824 7.80867 13.9821 7.51925C13.9811 6.5112 13.7787 5.54681 13.3266 4.64535C12.4133 2.82462 10.9602 1.66728 8.98508 1.1701C8.50051 1.04812 8.00523 1.00131 7.50533 0.994858C7.14598 0.990218 6.91205 0.641144 7.04044 0.31442C7.11592 0.12233 7.29769 -0.000267618 7.51925 4.38685e-07C8.51491 0.0012052 9.47606 0.185942 10.3905 0.579421C12.2694 1.38785 13.6079 2.7405 14.4148 4.61927C14.7499 5.39961 14.9648 6.42796 14.9779 7.29527Z" fill="white"/>
<path d="M11.8271 7.02154C11.8271 7.09615 11.8354 7.17187 11.8256 7.24516C11.7904 7.50714 11.5588 7.69916 11.3052 7.68316C11.0401 7.66642 10.8392 7.45661 10.8354 7.18107C10.8261 6.49099 10.6283 5.8641 10.1988 5.32117C9.60245 4.56727 8.8182 4.1766 7.85669 4.14379C7.47891 4.1309 7.24493 3.78749 7.38492 3.45144C7.46496 3.25929 7.65131 3.14163 7.88385 3.14768C8.98826 3.17642 9.93776 3.57316 10.7087 4.36765C11.424 5.10478 11.7827 5.99899 11.8271 7.02154Z" fill="white"/>
</svg>
