<svg width="17" height="15" viewBox="0 0 17 15" fill="none" xmlns="http://www.w3.org/2000/svg">
<path d="M0.834052 9.56676L0.735431 9.58331C0.895706 10.5384 1.71069 11.2826 2.67516 11.3543L2.67535 11.3543C2.73752 11.3588 2.78375 11.374 2.82102 11.398C2.85847 11.422 2.89311 11.4589 2.92588 11.5163C3.26382 12.1081 3.61025 12.7085 3.94522 13.2891L3.94778 13.2935L3.94778 13.2935L4.20534 13.74C4.33037 13.9568 4.52312 14.0999 4.74332 14.1H4.74336H4.74358C4.96245 14.1 5.15409 13.9582 5.27839 13.7432C5.27839 13.7432 5.2784 13.7432 5.2784 13.7432L5.47116 13.41L5.47117 13.41L5.47311 13.4067C5.81678 12.8128 6.17252 12.1982 6.51348 11.5891L16.531 4.27349L16.531 4.27088C16.5327 3.88909 16.5345 3.49296 16.5268 3.10399C16.5178 2.6449 16.4064 2.24282 16.1902 1.90395C15.9741 1.56507 15.6568 1.29506 15.245 1.09449L15.2449 1.09447C14.9694 0.96039 14.6563 0.903269 14.2394 0.903269L14.2394 0.903269C12.1507 0.904707 10.027 0.904445 7.97275 0.904192L7.95654 0.90419L7.15204 0.904097H7.15203C7.09073 0.904097 7.0525 0.903972 7.02064 0.900566L7.0207 0.9H7.01001H5.62799V0.899356L5.6167 0.90064C5.58751 0.903958 5.55281 0.904097 5.496 0.904097H5.49599C5.25622 0.904123 5.01653 0.90375 4.7767 0.903309L4.77669 0.903309C4.55933 0.902922 4.33907 0.902535 4.11771 0.902535C3.73318 0.902535 3.34493 0.903723 2.96083 0.908187L2.96082 0.908187C2.68386 0.911425 2.46329 0.937484 2.2704 0.992356L2.27039 0.992357C1.31756 1.26344 0.700244 2.08791 0.69888 3.08772L0.69888 3.08773C0.696084 5.17432 0.697628 7.25034 0.699705 9.18287L0.799705 9.18276M0.834052 9.56676L0.73545 9.58342C0.711855 9.44379 0.699705 9.30903 0.699705 9.18276H0.799705M0.834052 9.56676C0.811261 9.43188 0.799705 9.30273 0.799705 9.18276M0.834052 9.56676C0.986722 10.4766 1.76413 11.1863 2.68257 11.2546C2.83326 11.2655 2.93515 11.3309 3.01273 11.4667C3.35051 12.0583 3.69682 12.6585 4.0318 13.239L2.96199 1.00818C2.69037 1.01136 2.4793 1.0369 2.29776 1.08854C1.38853 1.34722 0.800184 2.13199 0.79888 3.08786C0.796084 5.17433 0.797628 7.25025 0.799705 9.18276M15.3728 9.13789V9.13786C15.374 7.3752 15.3748 5.28413 15.371 3.13898C15.3707 2.98705 15.3498 2.85274 15.3109 2.73879L15.3109 2.73877C15.2357 2.51845 15.1069 2.35137 14.9342 2.23853C14.7607 2.12522 14.537 2.06281 14.267 2.06281H14.267C10.4958 2.06225 6.72457 2.06253 2.95361 2.06308H2.95359C2.8763 2.06308 2.81493 2.06563 2.75937 2.07091L2.74991 1.97136M15.3728 9.13789L4.22525 11.6604C4.17267 11.5693 4.11985 11.4783 4.06702 11.3873L4.05433 11.3654L4.05429 11.3654C3.91027 11.1174 3.76134 10.8609 3.61923 10.6056M15.3728 9.13789C15.3727 9.46523 15.2633 9.73152 15.0796 9.91577C14.8959 10.1 14.6304 10.2097 14.3041 10.21H14.304C12.7944 10.2116 11.2596 10.2115 9.77519 10.2112L8.26552 10.2111C8.09393 10.2111 7.92233 10.2115 7.75087 10.2119L7.72078 10.212C7.29114 10.2131 6.84779 10.2143 6.41149 10.2089M15.3728 9.13789L3.7066 10.557M2.74991 1.97136L2.75954 2.0709C2.24378 2.12081 1.85673 2.54191 1.8556 3.04825C1.8556 3.04826 1.8556 3.04827 1.8556 3.04827L1.7556 3.04805M2.74991 1.97136C2.18429 2.0261 1.75683 2.48896 1.7556 3.04805M2.74991 1.97136C2.80944 1.96571 2.8741 1.96308 2.95359 1.96308C6.72456 1.96253 10.4958 1.96225 14.267 1.96281L1.7556 3.04805M1.7556 3.04805C1.7519 4.91258 1.75172 6.93306 1.75505 9.22501C1.75601 9.69852 2.06828 10.1187 2.51443 10.2468C2.7024 10.3008 2.89976 10.3066 3.10211 10.3081C3.3464 10.3101 3.50587 10.4019 3.61923 10.6056M3.61923 10.6056L3.7066 10.557M3.61923 10.6056L3.70661 10.557C3.7066 10.557 3.7066 10.557 3.7066 10.557M3.7066 10.557C3.84821 10.8114 3.99669 11.0671 4.1408 11.3152L4.14081 11.3152L4.15352 11.3371C4.20633 11.4281 4.25921 11.5192 4.31186 11.6104L4.31187 11.6104C4.3971 11.7582 4.48259 11.9056 4.57311 12.0618L4.57955 12.0729L4.57956 12.0729L4.7402 12.3502L4.77184 12.2975L4.81363 12.2282L4.81364 12.2282C4.83558 12.192 4.85163 12.1655 4.86696 12.1388L4.86704 12.1387C4.95092 11.9935 5.03525 11.8486 5.1195 11.7038C5.33167 11.3392 5.55044 10.9633 5.75783 10.5886C5.82843 10.461 5.91416 10.3622 6.0256 10.2972C6.13704 10.2322 6.26515 10.2063 6.41149 10.2089M3.7066 10.557C3.64312 10.4429 3.56318 10.3541 3.45964 10.2946C3.35644 10.2352 3.23747 10.2092 3.10296 10.2081L3.10285 10.2081C2.90008 10.2066 2.71534 10.2004 2.54204 10.1507L2.54203 10.1506C2.13989 10.0352 1.85595 9.65508 1.85505 9.22487L3.7066 10.557ZM6.41149 10.2089C6.41164 10.2089 6.41179 10.2089 6.41193 10.2089L6.41013 10.3089M6.41149 10.2089C6.41145 10.2089 6.4114 10.2089 6.41136 10.2089L6.41013 10.3089M6.41013 10.3089C6.14294 10.3041 5.97449 10.4035 5.84532 10.637L14.3042 10.31C12.7944 10.3116 11.2596 10.3115 9.77517 10.3112L8.26551 10.3111C8.09391 10.3111 7.92229 10.3115 7.75066 10.3119L7.72103 10.312C7.29148 10.3131 6.84734 10.3143 6.41013 10.3089ZM15.4055 2.70648C15.4486 2.83264 15.4706 2.97809 15.471 3.13878L15.4055 2.70648Z" fill="#1F276D" stroke="#1F276D" stroke-width="0.2"/>
<path d="M12.9447 4.31016C13.0935 4.31016 13.2226 4.33518 13.3292 4.39645C13.4378 4.45881 13.5137 4.55333 13.5647 4.67469M12.9447 4.31016L13.1695 5.44671C13.3332 5.40829 13.4709 5.30011 13.5471 5.15013L13.5471 5.15012C13.6227 5.00153 13.6292 4.82814 13.5647 4.67469M12.9447 4.31016H12.8447V4.31037C11.8321 4.31252 10.8051 4.31221 9.80865 4.3119L9.73372 4.31188L8.60892 4.31161L7.90715 4.31158L6.9268 4.31156C6.06599 4.31156 5.20524 4.31165 4.3444 4.31206L12.9447 4.31016ZM13.5647 4.67469L13.4725 4.71341L13.5647 4.67467C13.5647 4.67468 13.5647 4.67468 13.5647 4.67469ZM3.7211 4.55832L3.7211 4.55832C3.80932 4.43188 3.94314 4.34483 4.09125 4.32381L3.7211 4.55832ZM3.7211 4.55832C3.63171 4.68645 3.59594 4.84447 3.62749 4.99312L3.7211 4.55832ZM4.3444 4.31206L4.34077 4.31207C4.25868 4.3121 4.17348 4.31214 4.09125 4.32381L4.3444 4.31206ZM3.6275 4.99313C3.65957 5.14429 3.73049 5.26732 3.84499 5.35105C3.95812 5.43378 4.10306 5.4703 4.26952 5.47034L3.6275 4.99313Z" fill="#1F276D" stroke="#1F276D" stroke-width="0.2"/>
<path d="M12.9305 6.92376C13.1092 6.92379 13.2661 6.96525 13.3856 7.05246C13.507 7.1411 13.5812 7.27091 13.6023 7.42863C13.6233 7.58515 13.581 7.74011 13.4831 7.86365C13.3859 7.98646 13.2458 8.06269 13.0899 8.0776M12.9305 6.92376L13.0804 7.97805M12.9305 6.92376L9.63714 6.92344C7.6672 6.92344 5.94991 6.92384 4.30076 6.92464C4.205 6.92468 4.11669 6.93339 4.03903 6.95177L12.9305 6.92376ZM13.0899 8.0776L13.0804 7.97805M13.0899 8.0776C13.0899 8.0776 13.0899 8.0776 13.0899 8.0776L13.0804 7.97805M13.0899 8.0776C13.043 8.0821 12.9944 8.08182 12.9493 8.08155L12.9494 8.08155L12.9497 7.98155M13.0804 7.97805C13.0394 7.98199 12.9958 7.98183 12.9497 7.98155M12.9497 7.98155L12.9491 8.08155M12.9497 7.98155L12.9491 8.08155M12.9491 8.08155L12.9163 8.08144M12.9491 8.08155L4.03902 6.95178C3.75521 7.01897 3.56653 7.32586 3.62782 7.61194L3.7256 7.591L3.62782 7.61195C3.66791 7.7991 3.76425 7.92088 3.88586 7.99303C4.00366 8.06293 4.1365 8.08125 4.24569 8.0813M12.9163 8.08144L12.9163 7.98144L12.916 8.08144L12.9163 8.08144ZM12.9163 8.08144C11.7937 8.08158 10.6712 8.08158 9.54864 8.08158L9.06173 8.08158L7.40334 8.08163L7.18118 8.08164C6.2027 8.08168 5.2242 8.08172 4.24569 8.0813M4.24569 8.0813L4.24573 7.9813L4.24569 8.0813Z" fill="#1F276D" stroke="#1F276D" stroke-width="0.2"/>
</svg>
