<svg width="17" height="15" viewBox="0 0 17 15" fill="none" xmlns="http://www.w3.org/2000/svg">
<path d="M4.20534 13.74L3.94778 13.2935L3.94778 13.2935L3.94506 13.2888C3.61014 12.7083 3.26376 12.108 2.92588 11.5163L4.20534 13.74ZM4.20534 13.74C4.33037 13.9568 4.52312 14.0999 4.74332 14.1H4.74336H4.74358C4.96245 14.1 5.15409 13.9582 5.27838 13.7432C5.27839 13.7432 5.2784 13.7432 5.2784 13.7432L5.47116 13.41M4.20534 13.74L5.47116 13.41M5.47116 13.41L5.47117 13.41L5.47302 13.4068C5.81672 12.8129 6.17249 12.1982 6.51348 11.5891L5.47116 13.41ZM16.5266 6.40679C16.5313 7.34556 16.5303 8.28173 16.5285 9.15334C16.5271 9.83376 16.274 10.4035 15.7765 10.8395L15.7765 10.8395C15.3675 11.1979 14.8729 11.3703 14.2731 11.3703H14.2687H14.2686C13.3633 11.3694 12.4579 11.3693 11.5525 11.3693L11.4702 11.3693H11.4659C9.96732 11.3692 8.4177 11.369 6.89352 11.3652C6.89344 11.3652 6.89335 11.3652 6.89327 11.3652M16.5266 6.40679L6.89327 11.3652M16.5266 6.40679C16.5266 6.40668 16.5266 6.40657 16.5266 6.40646L16.5296 4.85244V4.85211C16.5293 4.6595 16.5302 4.46688 16.531 4.27394L16.531 4.27349L16.531 4.27053C16.5327 3.88885 16.5345 3.49284 16.5268 3.10399C16.5178 2.6449 16.4064 2.24282 16.1902 1.90395C15.9741 1.56507 15.6568 1.29506 15.245 1.09449L15.2449 1.09447C14.9694 0.960389 14.6563 0.903269 14.2394 0.903269L14.2394 0.903269C12.1506 0.904707 10.027 0.904445 7.97275 0.904192L7.95654 0.90419L7.15204 0.904097H7.15203C7.09073 0.904097 7.0525 0.903972 7.02064 0.900566L7.0207 0.9H7.01001H5.62799V0.899356L5.6167 0.90064C5.58751 0.903958 5.55281 0.904097 5.496 0.904097H5.49598C5.25622 0.904123 5.01653 0.90375 4.7767 0.903309L4.77669 0.903309C4.55933 0.902922 4.33907 0.902535 4.11771 0.902535C3.73318 0.902535 3.34493 0.903723 2.96083 0.908187L2.96082 0.908187C2.68386 0.911425 2.46329 0.937484 2.2704 0.992356L2.27039 0.992357C1.31756 1.26344 0.700244 2.08791 0.69888 3.08772L0.69888 3.08773C0.696084 5.17432 0.697628 7.25034 0.699705 9.18287L0.799705 9.18276L16.5266 6.40679ZM6.89327 11.3652L6.89196 11.3652C6.79341 11.3652 6.72338 11.3829 6.66803 11.4155C6.61258 11.4483 6.56252 11.5016 6.5135 11.589L6.89327 11.3652ZM14.304 10.21H14.3041C14.6304 10.2097 14.8959 10.1 15.0796 9.91577C15.2633 9.73152 15.3727 9.46523 15.3728 9.13789L15.3728 9.13786C15.374 7.3752 15.3748 5.28413 15.371 3.13898C15.3707 2.98705 15.3498 2.85274 15.3109 2.73879L15.3109 2.73877C15.2357 2.51845 15.1069 2.35137 14.9342 2.23853C14.7607 2.12522 14.537 2.06281 14.267 2.06281C10.4958 2.06225 6.72457 2.06253 2.95361 2.06308H2.95359C2.8763 2.06308 2.81493 2.06563 2.75937 2.07091L2.74991 1.9714L2.75954 2.0709C2.24377 2.12081 1.85672 2.54192 1.8556 3.04827C1.8519 4.91264 1.85172 6.93298 1.85505 9.22481C1.85592 9.65505 2.13987 10.0352 2.54203 10.1506L2.54204 10.1507C2.71534 10.2004 2.90008 10.2066 3.10285 10.2081L3.10296 10.2081C3.23747 10.2092 3.35644 10.2352 3.45964 10.2946L14.304 10.21ZM14.304 10.21C12.7944 10.2116 11.2596 10.2115 9.77519 10.2112L8.26552 10.2111C8.0933 10.2111 7.92108 10.2115 7.749 10.2119L7.72078 10.212C7.29114 10.2131 6.84779 10.2143 6.41149 10.2089M14.304 10.21L3.70661 10.557C3.84821 10.8114 3.9967 11.0671 4.1408 11.3152L4.14081 11.3152L4.15387 11.3377C4.20656 11.4285 4.25933 11.5194 4.31186 11.6104L4.31187 11.6104C4.39654 11.7572 4.48146 11.9037 4.57132 12.0587L4.57955 12.0729L4.57956 12.0729L4.7402 12.3502L4.77184 12.2975L4.81363 12.2282L4.81364 12.2282C4.83558 12.192 4.85163 12.1655 4.86696 12.1388L4.86704 12.1387C4.9508 11.9937 5.03502 11.8489 5.11915 11.7044L5.1195 11.7038C5.33167 11.3392 5.55044 10.9633 5.75783 10.5886C5.82843 10.461 5.91416 10.3622 6.0256 10.2972C6.13704 10.2322 6.26515 10.2063 6.41149 10.2089M6.41149 10.2089C6.41164 10.2089 6.41179 10.2089 6.41193 10.2089L6.41013 10.3089L6.41136 10.2089C6.4114 10.2089 6.41145 10.2089 6.41149 10.2089ZM15.4728 9.13793C15.4725 9.83832 15.0029 10.3094 14.3041 10.31L15.4728 9.13793Z" fill="#1F276D" stroke="#1F276D" stroke-width="0.2"/>
<path d="M12.9447 4.31016C13.0935 4.31016 13.2226 4.33518 13.3292 4.39645C13.4378 4.45881 13.5137 4.55332 13.5647 4.67467L12.9447 4.31016ZM12.9447 4.31016H12.8447V4.31037C11.8321 4.31252 10.8051 4.31221 9.80865 4.3119L9.73372 4.31188L8.60892 4.31161L7.90715 4.31158L6.9268 4.31156C6.06599 4.31156 5.20524 4.31165 4.3444 4.31206L12.9447 4.31016ZM3.7211 4.55832L3.7211 4.55832C3.80932 4.43188 3.94314 4.34483 4.09125 4.32381L3.7211 4.55832ZM3.7211 4.55832C3.63171 4.68645 3.59594 4.84447 3.62749 4.99312L3.7211 4.55832ZM4.26952 5.47034C4.10306 5.4703 3.95812 5.43378 3.84499 5.35105C3.73049 5.26732 3.65957 5.14429 3.6275 4.99313L12.9484 5.46976C10.1615 5.47088 7.32256 5.4711 4.26952 5.47034ZM4.26952 5.47034L4.26954 5.37034M4.26952 5.47034L4.26954 5.37034M4.26954 5.37034C7.32256 5.3711 10.1615 5.37088 12.9484 5.36976C13.0224 5.36974 13.0892 5.36288 13.1467 5.34936L4.26954 5.37034ZM4.3444 4.31206L4.34077 4.31207C4.25868 4.3121 4.17348 4.31214 4.09125 4.32381L4.3444 4.31206Z" fill="#1F276D" stroke="#1F276D" stroke-width="0.2"/>
<path d="M12.9305 6.92376C13.1092 6.92379 13.2661 6.96525 13.3856 7.05246C13.507 7.1411 13.5812 7.27091 13.6023 7.42863C13.6233 7.58515 13.581 7.74011 13.4831 7.86365C13.3859 7.98646 13.2458 8.06268 13.0899 8.0776L12.9305 6.92376ZM12.9305 6.92376L9.63714 6.92344C7.6672 6.92344 5.94991 6.92384 4.30076 6.92464C4.205 6.92468 4.11669 6.93339 4.03903 6.95177L12.9305 6.92376ZM4.03902 6.95178C3.75521 7.01897 3.56653 7.32586 3.62782 7.61194L4.03902 6.95178ZM12.9163 8.08144L12.9491 8.08155C12.9491 8.08155 12.9492 8.08155 12.9492 8.08155L12.9163 8.08144Z" fill="#1F276D" stroke="#1F276D" stroke-width="0.2"/>
</svg>
